<svg data-v-423bf9ae="" xmlns="http://www.w3.org/2000/svg" viewBox="0 0 332.1463442017063 60" class="font"><!----><!----><!----><g data-v-423bf9ae="" id="29fe0750-357d-4f5f-a55a-c13533f10bcd" fill="white" transform="matrix(4.878049083061471,0,0,4.878049083061471,-1.4146338107330223,-12.682927627589969)"><path d="M1.48 2.86L7.99 2.86L7.99 3.42L4.84 3.42L4.84 12.10L3.58 12.10L3.58 3.42L2.32 3.42Q1.48 3.42 1.03 3.80Q0.57 4.19 0.57 5.03L0.57 5.03L0.29 5.03L0.29 3.98Q0.29 3.77 0.34 3.56Q0.39 3.36 0.53 3.21Q0.66 3.05 0.89 2.95Q1.12 2.86 1.48 2.86L1.48 2.86ZM13.19 8.46L13.16 9.02L8.92 9.02Q8.92 9.59 9.04 10.08Q9.17 10.57 9.42 10.93Q9.66 11.28 10.01 11.48Q10.36 11.68 10.81 11.68L10.81 11.68Q11.49 11.68 11.95 11.38Q12.40 11.09 12.77 10.56L12.77 10.56L13.05 10.77Q12.57 11.56 11.95 11.90Q11.33 12.24 10.53 12.24L10.53 12.24Q9.79 12.24 9.24 11.96Q8.69 11.69 8.32 11.23Q7.95 10.77 7.77 10.14Q7.59 9.52 7.59 8.81L7.59 8.81Q7.59 8.09 7.78 7.47Q7.97 6.85 8.33 6.38Q8.69 5.92 9.21 5.65Q9.73 5.38 10.39 5.38L10.39 5.38Q11.82 5.38 12.50 6.17Q13.19 6.97 13.19 8.46L13.19 8.46ZM8.92 8.46L11.86 8.46Q11.86 7.24 11.49 6.59Q11.13 5.94 10.39 5.94L10.39 5.94Q10.07 5.94 9.80 6.13Q9.53 6.31 9.34 6.65Q9.14 6.99 9.03 7.45Q8.92 7.91 8.92 8.46L8.92 8.46ZM17.50 5.38L17.50 5.38Q18.24 5.38 18.75 5.49Q19.26 5.60 19.53 5.87L19.53 5.87Q19.66 5.99 19.73 6.15Q19.81 6.30 19.84 6.51Q19.87 6.72 19.87 7.01Q19.88 7.29 19.88 7.69L19.88 7.69L19.60 7.69Q19.54 6.79 19.03 6.36Q18.52 5.94 17.78 5.94L17.78 5.94Q17.25 5.94 16.87 6.16Q16.49 6.38 16.24 6.77Q15.99 7.15 15.87 7.68Q15.75 8.20 15.75 8.81L15.75 8.81Q15.75 9.41 15.87 9.93Q15.99 10.46 16.24 10.84Q16.49 11.23 16.87 11.45Q17.25 11.68 17.78 11.68L17.78 11.68Q18.52 11.68 18.98 11.38Q19.45 11.09 19.81 10.56L19.81 10.56L20.09 10.77Q19.61 11.56 18.98 11.90Q18.34 12.24 17.50 12.24L17.50 12.24Q16.72 12.24 16.14 11.96Q15.55 11.69 15.18 11.23Q14.80 10.77 14.61 10.14Q14.42 9.52 14.42 8.81L14.42 8.81Q14.42 8.09 14.61 7.47Q14.80 6.85 15.18 6.38Q15.55 5.92 16.14 5.65Q16.72 5.38 17.50 5.38ZM28.62 2.86L28.62 10.42Q28.62 11.05 28.79 11.43Q28.97 11.82 29.60 11.82L29.60 11.82L29.88 11.82L29.88 12.10L28.62 12.10Q28.25 12.10 28.01 12.03Q27.76 11.97 27.61 11.78Q27.47 11.59 27.41 11.27Q27.36 10.95 27.36 10.42L27.36 10.42L27.36 7.62L23.16 7.62L23.16 12.10L21.90 12.10L21.90 4.54Q21.90 3.91 21.72 3.52Q21.55 3.14 20.92 3.14L20.92 3.14L20.64 3.14L20.64 2.86L21.90 2.86Q22.26 2.86 22.50 2.92Q22.75 2.98 22.90 3.17Q23.04 3.36 23.10 3.69Q23.16 4.02 23.16 4.54L23.16 4.54L23.16 7.06L27.36 7.06L27.36 2.86L28.62 2.86ZM40.47 9.74L40.47 9.74Q40.47 10.33 40.27 10.81Q40.07 11.28 39.69 11.63Q39.31 11.97 38.77 12.15Q38.23 12.33 37.56 12.33L37.56 12.33Q36.99 12.33 36.42 12.21Q35.85 12.10 35.40 11.87Q34.94 11.65 34.66 11.33Q34.37 11.02 34.37 10.63L34.37 10.63L34.37 9.13L34.62 9.13Q34.86 10.54 35.55 11.16Q36.25 11.77 37.44 11.77L37.44 11.77Q37.80 11.77 38.13 11.68Q38.46 11.59 38.71 11.41Q38.96 11.23 39.12 10.96Q39.27 10.70 39.27 10.35L39.27 10.35Q39.27 9.73 38.88 9.30Q38.50 8.86 37.73 8.41L37.73 8.41L36.01 7.39Q35.11 6.86 34.74 6.31Q34.37 5.77 34.37 4.98L34.37 4.98Q34.37 4.44 34.57 4.00Q34.76 3.57 35.12 3.26Q35.48 2.94 35.97 2.77Q36.47 2.60 37.09 2.60L37.09 2.60Q37.60 2.60 38.14 2.72Q38.68 2.83 39.12 3.04Q39.55 3.26 39.83 3.58Q40.11 3.89 40.11 4.28L40.11 4.28L40.11 5.78L39.86 5.78Q39.62 4.37 38.95 3.77Q38.28 3.16 37.09 3.16L37.09 3.16Q36.78 3.16 36.48 3.26Q36.19 3.36 35.97 3.54Q35.74 3.72 35.60 3.99Q35.46 4.26 35.46 4.58L35.46 4.58Q35.46 4.89 35.56 5.12Q35.66 5.36 35.85 5.57Q36.05 5.78 36.34 5.99Q36.64 6.19 37.02 6.41L37.02 6.41L38.74 7.43Q39.19 7.70 39.52 7.95Q39.84 8.19 40.05 8.46Q40.26 8.74 40.37 9.04Q40.47 9.35 40.47 9.74ZM45.61 10.77L45.61 8.88L45.19 8.88Q44.14 8.88 43.55 9.26Q42.95 9.65 42.95 10.28L42.95 10.28Q42.95 10.61 43.06 10.86Q43.18 11.12 43.36 11.28Q43.54 11.45 43.78 11.53Q44.02 11.61 44.28 11.61L44.28 11.61Q44.80 11.61 45.10 11.35Q45.40 11.09 45.61 10.77L45.61 10.77ZM46.87 12.10L46.17 12.10L45.68 11.47L45.61 11.47Q45.40 11.73 44.93 11.98Q44.45 12.24 43.65 12.24L43.65 12.24Q43.36 12.24 43.01 12.14Q42.66 12.05 42.35 11.83Q42.04 11.61 41.83 11.23Q41.62 10.85 41.62 10.28L41.62 10.28Q41.62 9.70 41.92 9.32Q42.21 8.95 42.70 8.72Q43.19 8.50 43.83 8.41Q44.48 8.32 45.19 8.32L45.19 8.32L45.61 8.32Q45.61 7.59 45.50 7.12Q45.39 6.65 45.19 6.39Q45.00 6.13 44.72 6.03Q44.45 5.94 44.14 5.94L44.14 5.94Q43.55 5.94 43.15 6.19Q42.76 6.44 42.60 7.13L42.60 7.13L41.97 7.13Q41.97 6.76 42.01 6.45Q42.06 6.13 42.32 5.87L42.32 5.87Q42.45 5.74 42.68 5.64Q42.91 5.54 43.19 5.49Q43.47 5.43 43.78 5.40Q44.10 5.38 44.42 5.38L44.42 5.38Q44.90 5.38 45.34 5.48Q45.78 5.59 46.12 5.90Q46.47 6.22 46.67 6.80Q46.87 7.38 46.87 8.32L46.87 8.32L46.87 12.10ZM50.46 7.13L51.72 10.14L53.68 5.52L54.38 5.52L51.51 12.24L51.23 12.24L49.06 7.13Q48.89 6.73 48.73 6.47Q48.58 6.20 48.41 6.03Q48.24 5.87 48.05 5.78Q47.85 5.70 47.60 5.68L47.60 5.68L47.60 5.40Q47.66 5.40 47.82 5.39Q47.98 5.38 48.08 5.38L48.08 5.38Q48.38 5.38 48.71 5.45Q49.04 5.52 49.35 5.71Q49.66 5.89 49.94 6.24Q50.22 6.58 50.46 7.13L50.46 7.13ZM57.41 7.13L58.67 10.14L60.63 5.52L61.33 5.52L58.46 12.24L58.18 12.24L56.01 7.13Q55.85 6.73 55.69 6.47Q55.54 6.20 55.37 6.03Q55.20 5.87 55.01 5.78Q54.81 5.70 54.56 5.68L54.56 5.68L54.56 5.40Q54.61 5.40 54.77 5.39Q54.94 5.38 55.03 5.38L55.03 5.38Q55.34 5.38 55.67 5.45Q56.00 5.52 56.31 5.71Q56.62 5.89 56.90 6.24Q57.18 6.58 57.41 7.13L57.41 7.13ZM64.95 13.01L65.23 12.24L62.99 6.78Q62.78 6.24 62.38 5.98Q61.98 5.71 61.45 5.66L61.45 5.66L61.45 5.38L62.64 5.38Q63.27 5.38 63.68 5.67Q64.09 5.96 64.32 6.50L64.32 6.50L65.91 10.37L67.68 5.52L68.38 5.52L65.65 13.01Q65.44 13.58 65.20 13.95Q64.97 14.32 64.71 14.53Q64.46 14.74 64.15 14.82Q63.84 14.90 63.48 14.90L63.48 14.90L63.06 14.90L63.06 14.48Q63.36 14.48 63.64 14.41Q63.92 14.35 64.15 14.19Q64.39 14.03 64.58 13.74Q64.78 13.45 64.95 13.01L64.95 13.01Z"></path></g><!----><!----></svg>